<svg width="431" height="103" viewBox="0 0 431 103" fill="none" xmlns="http://www.w3.org/2000/svg">
<path d="M100.004 34H344.996V58C344.996 62.4183 341.414 66 336.996 66H108.004C103.586 66 100.004 62.4183 100.004 58V34Z" fill="#29ABE2"/>
<rect x="100" y="1" width="245" height="66" rx="9" stroke="#29ABE2" stroke-width="2"/>
<path d="M121.396 18.3672L123.228 14.0469H125.818L122.612 20.4248V24H120.179V20.4248L116.979 14.0469H119.557L121.396 18.3672ZM125.695 20.2334C125.695 19.4951 125.839 18.8389 126.126 18.2646C126.413 17.6859 126.826 17.2415 127.363 16.9316C127.901 16.6217 128.532 16.4668 129.257 16.4668C130.364 16.4668 131.237 16.8109 131.875 17.499C132.513 18.1826 132.832 19.1146 132.832 20.2949V20.377C132.832 21.5299 132.511 22.446 131.868 23.125C131.23 23.7995 130.364 24.1367 129.271 24.1367C128.218 24.1367 127.372 23.8223 126.734 23.1934C126.096 22.5599 125.752 21.7031 125.702 20.623L125.695 20.2334ZM127.999 20.377C127.999 21.0605 128.106 21.5618 128.32 21.8809C128.535 22.1999 128.851 22.3594 129.271 22.3594C130.091 22.3594 130.51 21.7282 130.528 20.4658V20.2334C130.528 18.9072 130.104 18.2441 129.257 18.2441C128.487 18.2441 128.07 18.8161 128.006 19.96L127.999 20.377ZM138.253 23.2002C137.765 23.8245 137.107 24.1367 136.277 24.1367C135.466 24.1367 134.851 23.902 134.432 23.4326C134.017 22.9587 133.81 22.2796 133.81 21.3955V16.6035H136.113V21.4092C136.113 22.0426 136.421 22.3594 137.036 22.3594C137.565 22.3594 137.941 22.1702 138.164 21.792V16.6035H140.481V24H138.321L138.253 23.2002ZM153.395 20.6299C153.363 21.3226 153.176 21.9355 152.834 22.4688C152.492 22.9974 152.011 23.4076 151.392 23.6992C150.776 23.9909 150.072 24.1367 149.279 24.1367C147.971 24.1367 146.941 23.7106 146.189 22.8584C145.438 22.0062 145.062 20.8031 145.062 19.249V18.7568C145.062 17.7816 145.23 16.9294 145.567 16.2002C145.909 15.4665 146.399 14.9014 147.037 14.5049C147.675 14.1038 148.413 13.9033 149.252 13.9033C150.46 13.9033 151.43 14.2223 152.164 14.8604C152.898 15.4938 153.315 16.3688 153.415 17.4854H151.022C151.004 16.8792 150.852 16.444 150.564 16.1797C150.277 15.9154 149.84 15.7832 149.252 15.7832C148.655 15.7832 148.217 16.0065 147.939 16.4531C147.661 16.8997 147.516 17.613 147.502 18.5928V19.2969C147.502 20.3587 147.634 21.1175 147.898 21.5732C148.167 22.029 148.628 22.2568 149.279 22.2568C149.831 22.2568 150.252 22.127 150.544 21.8672C150.836 21.6074 150.991 21.195 151.009 20.6299H153.395ZM158.59 24C158.508 23.8496 158.435 23.6286 158.371 23.3369C157.947 23.8701 157.355 24.1367 156.594 24.1367C155.896 24.1367 155.304 23.9271 154.816 23.5078C154.329 23.084 154.085 22.5531 154.085 21.915C154.085 21.113 154.381 20.5068 154.974 20.0967C155.566 19.6865 156.427 19.4814 157.558 19.4814H158.269V19.0918C158.269 18.4128 157.975 18.0732 157.387 18.0732C156.84 18.0732 156.566 18.3421 156.566 18.8799H154.263C154.263 18.1644 154.566 17.5833 155.172 17.1367C155.783 16.6901 156.56 16.4668 157.503 16.4668C158.446 16.4668 159.191 16.6969 159.738 17.1572C160.285 17.6175 160.565 18.2487 160.579 19.0508V22.3252C160.588 23.0042 160.693 23.5238 160.894 23.8838V24H158.59ZM157.147 22.4961C157.435 22.4961 157.672 22.4346 157.858 22.3115C158.05 22.1885 158.187 22.0495 158.269 21.8945V20.7119H157.599C156.797 20.7119 156.396 21.0719 156.396 21.792C156.396 22.0016 156.466 22.1725 156.607 22.3047C156.749 22.4323 156.929 22.4961 157.147 22.4961ZM163.977 16.6035L164.052 17.4717C164.562 16.8018 165.266 16.4668 166.164 16.4668C166.934 16.4668 167.508 16.6969 167.887 17.1572C168.27 17.6175 168.468 18.3102 168.481 19.2354V24H166.171V19.3311C166.171 18.9574 166.096 18.6839 165.945 18.5107C165.795 18.333 165.521 18.2441 165.125 18.2441C164.674 18.2441 164.339 18.4219 164.12 18.7773V24H161.816V16.6035H163.977ZM179.528 19.7822H175.755V22.1543H180.212V24H173.355V14.0469H180.226V15.8994H175.755V17.998H179.528V19.7822ZM180.656 20.2471C180.656 19.0758 180.909 18.153 181.415 17.4785C181.921 16.804 182.627 16.4668 183.534 16.4668C184.195 16.4668 184.751 16.7266 185.202 17.2461V13.5H187.513V24H185.441L185.325 23.207C184.851 23.8268 184.25 24.1367 183.521 24.1367C182.641 24.1367 181.944 23.7995 181.429 23.125C180.914 22.4505 180.656 21.4912 180.656 20.2471ZM182.96 20.3906C182.96 21.7031 183.343 22.3594 184.108 22.3594C184.619 22.3594 184.983 22.1452 185.202 21.7168V18.9004C184.993 18.4629 184.632 18.2441 184.122 18.2441C183.411 18.2441 183.026 18.8184 182.967 19.9668L182.96 20.3906ZM191.252 24H188.941V16.6035H191.252V24ZM188.805 14.6963C188.805 14.3682 188.923 14.0993 189.16 13.8896C189.397 13.68 189.705 13.5752 190.083 13.5752C190.461 13.5752 190.769 13.68 191.006 13.8896C191.243 14.0993 191.361 14.3682 191.361 14.6963C191.361 15.0244 191.243 15.2933 191.006 15.5029C190.769 15.7126 190.461 15.8174 190.083 15.8174C189.705 15.8174 189.397 15.7126 189.16 15.5029C188.923 15.2933 188.805 15.0244 188.805 14.6963ZM195.36 14.7646V16.6035H196.577V18.2031H195.36V21.5869C195.36 21.8649 195.41 22.0586 195.511 22.168C195.611 22.2773 195.809 22.332 196.105 22.332C196.333 22.332 196.525 22.3184 196.68 22.291V23.9385C196.265 24.0706 195.832 24.1367 195.381 24.1367C194.588 24.1367 194.002 23.9499 193.624 23.5762C193.246 23.2025 193.057 22.6351 193.057 21.874V18.2031H192.113V16.6035H193.057V14.7646H195.36ZM204.466 20.2949L203.481 21.375V24H201.082V14.0469H203.481V18.4355L204.315 17.1709L206.462 14.0469H209.429L206.065 18.4492L209.429 24H206.585L204.466 20.2949ZM209.449 20.2334C209.449 19.4951 209.593 18.8389 209.88 18.2646C210.167 17.6859 210.579 17.2415 211.117 16.9316C211.655 16.6217 212.286 16.4668 213.011 16.4668C214.118 16.4668 214.991 16.8109 215.629 17.499C216.267 18.1826 216.586 19.1146 216.586 20.2949V20.377C216.586 21.5299 216.265 22.446 215.622 23.125C214.984 23.7995 214.118 24.1367 213.024 24.1367C211.972 24.1367 211.126 23.8223 210.488 23.1934C209.85 22.5599 209.506 21.7031 209.456 20.623L209.449 20.2334ZM211.753 20.377C211.753 21.0605 211.86 21.5618 212.074 21.8809C212.288 22.1999 212.605 22.3594 213.024 22.3594C213.845 22.3594 214.264 21.7282 214.282 20.4658V20.2334C214.282 18.9072 213.858 18.2441 213.011 18.2441C212.241 18.2441 211.824 18.8161 211.76 19.96L211.753 20.377ZM222.075 18.6885L221.316 18.6338C220.592 18.6338 220.127 18.8617 219.922 19.3174V24H217.618V16.6035H219.778L219.854 17.5537C220.241 16.8291 220.781 16.4668 221.474 16.4668C221.72 16.4668 221.934 16.4941 222.116 16.5488L222.075 18.6885ZM226.348 24.1367C225.213 24.1367 224.295 23.7995 223.593 23.125C222.891 22.446 222.54 21.5641 222.54 20.4795V20.2881C222.54 19.5316 222.679 18.8639 222.957 18.2852C223.24 17.7064 223.65 17.2598 224.188 16.9453C224.725 16.6263 225.363 16.4668 226.102 16.4668C227.141 16.4668 227.961 16.7904 228.562 17.4375C229.164 18.0801 229.465 18.9779 229.465 20.1309V21.0264H224.885C224.967 21.4411 225.147 21.7669 225.425 22.0039C225.703 22.2409 226.063 22.3594 226.505 22.3594C227.234 22.3594 227.804 22.1042 228.214 21.5938L229.267 22.8379C228.979 23.2344 228.572 23.5511 228.043 23.7881C227.519 24.0205 226.954 24.1367 226.348 24.1367ZM226.088 18.2441C225.413 18.2441 225.012 18.6908 224.885 19.584H227.209V19.4062C227.218 19.0371 227.125 18.7523 226.929 18.5518C226.733 18.3467 226.452 18.2441 226.088 18.2441ZM234.564 24C234.482 23.8496 234.41 23.6286 234.346 23.3369C233.922 23.8701 233.329 24.1367 232.568 24.1367C231.871 24.1367 231.279 23.9271 230.791 23.5078C230.303 23.084 230.06 22.5531 230.06 21.915C230.06 21.113 230.356 20.5068 230.948 20.0967C231.541 19.6865 232.402 19.4814 233.532 19.4814H234.243V19.0918C234.243 18.4128 233.949 18.0732 233.361 18.0732C232.814 18.0732 232.541 18.3421 232.541 18.8799H230.237C230.237 18.1644 230.54 17.5833 231.146 17.1367C231.757 16.6901 232.534 16.4668 233.478 16.4668C234.421 16.4668 235.166 16.6969 235.713 17.1572C236.26 17.6175 236.54 18.2487 236.554 19.0508V22.3252C236.563 23.0042 236.668 23.5238 236.868 23.8838V24H234.564ZM233.122 22.4961C233.409 22.4961 233.646 22.4346 233.833 22.3115C234.024 22.1885 234.161 22.0495 234.243 21.8945V20.7119H233.573C232.771 20.7119 232.37 21.0719 232.37 21.792C232.37 22.0016 232.441 22.1725 232.582 22.3047C232.723 22.4323 232.903 22.4961 233.122 22.4961ZM239.951 16.6035L240.026 17.4717C240.537 16.8018 241.241 16.4668 242.139 16.4668C242.909 16.4668 243.483 16.6969 243.861 17.1572C244.244 17.6175 244.442 18.3102 244.456 19.2354V24H242.146V19.3311C242.146 18.9574 242.07 18.6839 241.92 18.5107C241.77 18.333 241.496 18.2441 241.1 18.2441C240.648 18.2441 240.313 18.4219 240.095 18.7773V24H237.791V16.6035H239.951ZM251.477 17.3965C251.969 16.7767 252.598 16.4668 253.363 16.4668C254.179 16.4668 254.794 16.7083 255.209 17.1914C255.624 17.6745 255.836 18.3877 255.845 19.3311V24H253.534V19.3857C253.534 18.9938 253.454 18.7067 253.295 18.5244C253.135 18.3376 252.864 18.2441 252.481 18.2441C252.007 18.2441 251.673 18.3945 251.477 18.6953V24H249.173V13.5H251.477V17.3965ZM260.705 24.1367C259.57 24.1367 258.652 23.7995 257.95 23.125C257.248 22.446 256.897 21.5641 256.897 20.4795V20.2881C256.897 19.5316 257.036 18.8639 257.314 18.2852C257.597 17.7064 258.007 17.2598 258.545 16.9453C259.083 16.6263 259.721 16.4668 260.459 16.4668C261.498 16.4668 262.318 16.7904 262.92 17.4375C263.521 18.0801 263.822 18.9779 263.822 20.1309V21.0264H259.242C259.324 21.4411 259.504 21.7669 259.782 22.0039C260.06 22.2409 260.42 22.3594 260.862 22.3594C261.591 22.3594 262.161 22.1042 262.571 21.5938L263.624 22.8379C263.337 23.2344 262.929 23.5511 262.4 23.7881C261.876 24.0205 261.311 24.1367 260.705 24.1367ZM260.445 18.2441C259.771 18.2441 259.37 18.6908 259.242 19.584H261.566V19.4062C261.576 19.0371 261.482 18.7523 261.286 18.5518C261.09 18.3467 260.81 18.2441 260.445 18.2441ZM269.229 18.6885L268.471 18.6338C267.746 18.6338 267.281 18.8617 267.076 19.3174V24H264.772V16.6035H266.933L267.008 17.5537C267.395 16.8291 267.935 16.4668 268.628 16.4668C268.874 16.4668 269.088 16.4941 269.271 16.5488L269.229 18.6885ZM273.502 24.1367C272.367 24.1367 271.449 23.7995 270.747 23.125C270.045 22.446 269.694 21.5641 269.694 20.4795V20.2881C269.694 19.5316 269.833 18.8639 270.111 18.2852C270.394 17.7064 270.804 17.2598 271.342 16.9453C271.88 16.6263 272.518 16.4668 273.256 16.4668C274.295 16.4668 275.115 16.7904 275.717 17.4375C276.318 18.0801 276.619 18.9779 276.619 20.1309V21.0264H272.039C272.121 21.4411 272.301 21.7669 272.579 22.0039C272.857 22.2409 273.217 22.3594 273.659 22.3594C274.388 22.3594 274.958 22.1042 275.368 21.5938L276.421 22.8379C276.134 23.2344 275.726 23.5511 275.197 23.7881C274.673 24.0205 274.108 24.1367 273.502 24.1367ZM273.242 18.2441C272.568 18.2441 272.167 18.6908 272.039 19.584H274.363V19.4062C274.372 19.0371 274.279 18.7523 274.083 18.5518C273.887 18.3467 273.607 18.2441 273.242 18.2441Z" fill="black"/>
<path d="M121.45 51.4863H120.151V55H117.752V45.0469H121.669C122.849 45.0469 123.772 45.3089 124.438 45.833C125.103 46.3571 125.436 47.0977 125.436 48.0547C125.436 48.7474 125.294 49.3216 125.012 49.7773C124.734 50.2331 124.296 50.6022 123.699 50.8848L125.777 54.8975V55H123.207L121.45 51.4863ZM120.151 49.6338H121.669C122.125 49.6338 122.466 49.5153 122.694 49.2783C122.927 49.0368 123.043 48.7018 123.043 48.2734C123.043 47.8451 122.927 47.5101 122.694 47.2686C122.462 47.0225 122.12 46.8994 121.669 46.8994H120.151V49.6338ZM130.357 55.1367C129.223 55.1367 128.304 54.7995 127.603 54.125C126.901 53.446 126.55 52.5641 126.55 51.4795V51.2881C126.55 50.5316 126.689 49.8639 126.967 49.2852C127.249 48.7064 127.66 48.2598 128.197 47.9453C128.735 47.6263 129.373 47.4668 130.111 47.4668C131.15 47.4668 131.971 47.7904 132.572 48.4375C133.174 49.0801 133.475 49.9779 133.475 51.1309V52.0264H128.895C128.977 52.4411 129.157 52.7669 129.435 53.0039C129.713 53.2409 130.073 53.3594 130.515 53.3594C131.244 53.3594 131.813 53.1042 132.224 52.5938L133.276 53.8379C132.989 54.2344 132.581 54.5511 132.053 54.7881C131.529 55.0205 130.964 55.1367 130.357 55.1367ZM130.098 49.2441C129.423 49.2441 129.022 49.6908 128.895 50.584H131.219V50.4062C131.228 50.0371 131.134 49.7523 130.938 49.5518C130.743 49.3467 130.462 49.2441 130.098 49.2441ZM137.091 45.7646V47.6035H138.308V49.2031H137.091V52.5869C137.091 52.8649 137.141 53.0586 137.241 53.168C137.341 53.2773 137.54 53.332 137.836 53.332C138.064 53.332 138.255 53.3184 138.41 53.291V54.9385C137.995 55.0706 137.562 55.1367 137.111 55.1367C136.318 55.1367 135.733 54.9499 135.354 54.5762C134.976 54.2025 134.787 53.6351 134.787 52.874V49.2031H133.844V47.6035H134.787V45.7646H137.091ZM143.694 49.6885L142.936 49.6338C142.211 49.6338 141.746 49.8617 141.541 50.3174V55H139.237V47.6035H141.397L141.473 48.5537C141.86 47.8291 142.4 47.4668 143.093 47.4668C143.339 47.4668 143.553 47.4941 143.735 47.5488L143.694 49.6885ZM148.486 55C148.404 54.8496 148.331 54.6286 148.268 54.3369C147.844 54.8701 147.251 55.1367 146.49 55.1367C145.793 55.1367 145.201 54.9271 144.713 54.5078C144.225 54.084 143.981 53.5531 143.981 52.915C143.981 52.113 144.278 51.5068 144.87 51.0967C145.463 50.6865 146.324 50.4814 147.454 50.4814H148.165V50.0918C148.165 49.4128 147.871 49.0732 147.283 49.0732C146.736 49.0732 146.463 49.3421 146.463 49.8799H144.159C144.159 49.1644 144.462 48.5833 145.068 48.1367C145.679 47.6901 146.456 47.4668 147.399 47.4668C148.343 47.4668 149.088 47.6969 149.635 48.1572C150.182 48.6175 150.462 49.2487 150.476 50.0508V53.3252C150.485 54.0042 150.59 54.5238 150.79 54.8838V55H148.486ZM147.044 53.4961C147.331 53.4961 147.568 53.4346 147.755 53.3115C147.946 53.1885 148.083 53.0495 148.165 52.8945V51.7119H147.495C146.693 51.7119 146.292 52.0719 146.292 52.792C146.292 53.0016 146.363 53.1725 146.504 53.3047C146.645 53.4323 146.825 53.4961 147.044 53.4961ZM153.873 47.6035L153.948 48.4717C154.459 47.8018 155.163 47.4668 156.061 47.4668C156.831 47.4668 157.405 47.6969 157.783 48.1572C158.166 48.6175 158.364 49.3102 158.378 50.2354V55H156.067V50.3311C156.067 49.9574 155.992 49.6839 155.842 49.5107C155.691 49.333 155.418 49.2441 155.021 49.2441C154.57 49.2441 154.235 49.4219 154.017 49.7773V55H151.713V47.6035H153.873ZM163.532 52.9219C163.532 52.7259 163.43 52.5687 163.225 52.4502C163.02 52.3317 162.63 52.2087 162.056 52.0811C161.481 51.9535 161.007 51.7871 160.634 51.582C160.26 51.3724 159.975 51.1195 159.779 50.8232C159.583 50.527 159.485 50.1875 159.485 49.8047C159.485 49.1257 159.766 48.5674 160.326 48.1299C160.887 47.6878 161.62 47.4668 162.527 47.4668C163.503 47.4668 164.286 47.6878 164.879 48.1299C165.471 48.5719 165.768 49.153 165.768 49.873H163.457C163.457 49.2806 163.145 48.9844 162.521 48.9844C162.279 48.9844 162.076 49.0527 161.912 49.1895C161.748 49.3216 161.666 49.488 161.666 49.6885C161.666 49.8936 161.766 50.0599 161.967 50.1875C162.167 50.3151 162.486 50.4199 162.924 50.502C163.366 50.584 163.753 50.682 164.086 50.7959C165.198 51.1787 165.754 51.8646 165.754 52.8535C165.754 53.528 165.453 54.0771 164.852 54.501C164.255 54.9248 163.48 55.1367 162.527 55.1367C161.894 55.1367 161.329 55.0228 160.832 54.7949C160.335 54.5671 159.948 54.2572 159.67 53.8652C159.392 53.4733 159.253 53.0609 159.253 52.6279H161.406C161.415 52.9697 161.529 53.2204 161.748 53.3799C161.967 53.5348 162.247 53.6123 162.589 53.6123C162.903 53.6123 163.138 53.5485 163.293 53.4209C163.452 53.2933 163.532 53.127 163.532 52.9219ZM169.268 55H166.957V44.5H169.268V55ZM174.859 55C174.777 54.8496 174.704 54.6286 174.641 54.3369C174.217 54.8701 173.624 55.1367 172.863 55.1367C172.166 55.1367 171.574 54.9271 171.086 54.5078C170.598 54.084 170.354 53.5531 170.354 52.915C170.354 52.113 170.651 51.5068 171.243 51.0967C171.836 50.6865 172.697 50.4814 173.827 50.4814H174.538V50.0918C174.538 49.4128 174.244 49.0732 173.656 49.0732C173.109 49.0732 172.836 49.3421 172.836 49.8799H170.532C170.532 49.1644 170.835 48.5833 171.441 48.1367C172.052 47.6901 172.829 47.4668 173.772 47.4668C174.716 47.4668 175.461 47.6969 176.008 48.1572C176.555 48.6175 176.835 49.2487 176.849 50.0508V53.3252C176.858 54.0042 176.963 54.5238 177.163 54.8838V55H174.859ZM173.417 53.4961C173.704 53.4961 173.941 53.4346 174.128 53.3115C174.319 53.1885 174.456 53.0495 174.538 52.8945V51.7119H173.868C173.066 51.7119 172.665 52.0719 172.665 52.792C172.665 53.0016 172.736 53.1725 172.877 53.3047C173.018 53.4323 173.198 53.4961 173.417 53.4961ZM180.813 45.7646V47.6035H182.03V49.2031H180.813V52.5869C180.813 52.8649 180.864 53.0586 180.964 53.168C181.064 53.2773 181.262 53.332 181.559 53.332C181.786 53.332 181.978 53.3184 182.133 53.291V54.9385C181.718 55.0706 181.285 55.1367 180.834 55.1367C180.041 55.1367 179.455 54.9499 179.077 54.5762C178.699 54.2025 178.51 53.6351 178.51 52.874V49.2031H177.566V47.6035H178.51V45.7646H180.813ZM186.521 55.1367C185.387 55.1367 184.468 54.7995 183.767 54.125C183.065 53.446 182.714 52.5641 182.714 51.4795V51.2881C182.714 50.5316 182.853 49.8639 183.131 49.2852C183.413 48.7064 183.824 48.2598 184.361 47.9453C184.899 47.6263 185.537 47.4668 186.275 47.4668C187.314 47.4668 188.135 47.7904 188.736 48.4375C189.338 49.0801 189.639 49.9779 189.639 51.1309V52.0264H185.059C185.141 52.4411 185.321 52.7669 185.599 53.0039C185.877 53.2409 186.237 53.3594 186.679 53.3594C187.408 53.3594 187.978 53.1042 188.388 52.5938L189.44 53.8379C189.153 54.2344 188.745 54.5511 188.217 54.7881C187.693 55.0205 187.128 55.1367 186.521 55.1367ZM186.262 49.2441C185.587 49.2441 185.186 49.6908 185.059 50.584H187.383V50.4062C187.392 50.0371 187.299 49.7523 187.103 49.5518C186.907 49.3467 186.626 49.2441 186.262 49.2441ZM190.281 51.2471C190.281 50.0758 190.534 49.153 191.04 48.4785C191.546 47.804 192.252 47.4668 193.159 47.4668C193.82 47.4668 194.376 47.7266 194.827 48.2461V44.5H197.138V55H195.066L194.95 54.207C194.476 54.8268 193.875 55.1367 193.146 55.1367C192.266 55.1367 191.569 54.7995 191.054 54.125C190.539 53.4505 190.281 52.4912 190.281 51.2471ZM192.585 51.3906C192.585 52.7031 192.968 53.3594 193.733 53.3594C194.244 53.3594 194.608 53.1452 194.827 52.7168V49.9004C194.618 49.4629 194.257 49.2441 193.747 49.2441C193.036 49.2441 192.651 49.8184 192.592 50.9668L192.585 51.3906ZM205.806 52.9219C205.806 52.7259 205.703 52.5687 205.498 52.4502C205.293 52.3317 204.903 52.2087 204.329 52.0811C203.755 51.9535 203.281 51.7871 202.907 51.582C202.534 51.3724 202.249 51.1195 202.053 50.8232C201.857 50.527 201.759 50.1875 201.759 49.8047C201.759 49.1257 202.039 48.5674 202.6 48.1299C203.16 47.6878 203.894 47.4668 204.801 47.4668C205.776 47.4668 206.56 47.6878 207.152 48.1299C207.745 48.5719 208.041 49.153 208.041 49.873H205.73C205.73 49.2806 205.418 48.9844 204.794 48.9844C204.552 48.9844 204.35 49.0527 204.186 49.1895C204.021 49.3216 203.939 49.488 203.939 49.6885C203.939 49.8936 204.04 50.0599 204.24 50.1875C204.441 50.3151 204.76 50.4199 205.197 50.502C205.639 50.584 206.027 50.682 206.359 50.7959C207.471 51.1787 208.027 51.8646 208.027 52.8535C208.027 53.528 207.727 54.0771 207.125 54.501C206.528 54.9248 205.753 55.1367 204.801 55.1367C204.167 55.1367 203.602 55.0228 203.105 54.7949C202.609 54.5671 202.221 54.2572 201.943 53.8652C201.665 53.4733 201.526 53.0609 201.526 52.6279H203.68C203.689 52.9697 203.803 53.2204 204.021 53.3799C204.24 53.5348 204.521 53.6123 204.862 53.6123C205.177 53.6123 205.411 53.5485 205.566 53.4209C205.726 53.2933 205.806 53.127 205.806 52.9219ZM212.689 55.1367C211.555 55.1367 210.636 54.7995 209.935 54.125C209.233 53.446 208.882 52.5641 208.882 51.4795V51.2881C208.882 50.5316 209.021 49.8639 209.299 49.2852C209.581 48.7064 209.992 48.2598 210.529 47.9453C211.067 47.6263 211.705 47.4668 212.443 47.4668C213.482 47.4668 214.303 47.7904 214.904 48.4375C215.506 49.0801 215.807 49.9779 215.807 51.1309V52.0264H211.227C211.309 52.4411 211.489 52.7669 211.767 53.0039C212.045 53.2409 212.405 53.3594 212.847 53.3594C213.576 53.3594 214.146 53.1042 214.556 52.5938L215.608 53.8379C215.321 54.2344 214.913 54.5511 214.385 54.7881C213.861 55.0205 213.296 55.1367 212.689 55.1367ZM212.43 49.2441C211.755 49.2441 211.354 49.6908 211.227 50.584H213.551V50.4062C213.56 50.0371 213.466 49.7523 213.271 49.5518C213.075 49.3467 212.794 49.2441 212.43 49.2441ZM218.855 47.6035L218.931 48.4717C219.441 47.8018 220.145 47.4668 221.043 47.4668C221.813 47.4668 222.387 47.6969 222.766 48.1572C223.148 48.6175 223.347 49.3102 223.36 50.2354V55H221.05V50.3311C221.05 49.9574 220.975 49.6839 220.824 49.5107C220.674 49.333 220.4 49.2441 220.004 49.2441C219.553 49.2441 219.218 49.4219 218.999 49.7773V55H216.695V47.6035H218.855ZM227.325 45.7646V47.6035H228.542V49.2031H227.325V52.5869C227.325 52.8649 227.375 53.0586 227.476 53.168C227.576 53.2773 227.774 53.332 228.07 53.332C228.298 53.332 228.49 53.3184 228.645 53.291V54.9385C228.23 55.0706 227.797 55.1367 227.346 55.1367C226.553 55.1367 225.967 54.9499 225.589 54.5762C225.211 54.2025 225.021 53.6351 225.021 52.874V49.2031H224.078V47.6035H225.021V45.7646H227.325ZM233.033 55.1367C231.898 55.1367 230.98 54.7995 230.278 54.125C229.576 53.446 229.226 52.5641 229.226 51.4795V51.2881C229.226 50.5316 229.365 49.8639 229.643 49.2852C229.925 48.7064 230.335 48.2598 230.873 47.9453C231.411 47.6263 232.049 47.4668 232.787 47.4668C233.826 47.4668 234.646 47.7904 235.248 48.4375C235.85 49.0801 236.15 49.9779 236.15 51.1309V52.0264H231.57C231.652 52.4411 231.832 52.7669 232.11 53.0039C232.388 53.2409 232.748 53.3594 233.19 53.3594C233.92 53.3594 234.489 53.1042 234.899 52.5938L235.952 53.8379C235.665 54.2344 235.257 54.5511 234.729 54.7881C234.204 55.0205 233.639 55.1367 233.033 55.1367ZM232.773 49.2441C232.099 49.2441 231.698 49.6908 231.57 50.584H233.895V50.4062C233.904 50.0371 233.81 49.7523 233.614 49.5518C233.418 49.3467 233.138 49.2441 232.773 49.2441ZM239.199 47.6035L239.274 48.4717C239.785 47.8018 240.489 47.4668 241.387 47.4668C242.157 47.4668 242.731 47.6969 243.109 48.1572C243.492 48.6175 243.69 49.3102 243.704 50.2354V55H241.394V50.3311C241.394 49.9574 241.318 49.6839 241.168 49.5107C241.018 49.333 240.744 49.2441 240.348 49.2441C239.896 49.2441 239.562 49.4219 239.343 49.7773V55H237.039V47.6035H239.199ZM248.113 53.3594C248.437 53.3594 248.688 53.2728 248.865 53.0996C249.043 52.9219 249.13 52.6758 249.125 52.3613H251.285C251.285 53.1725 250.993 53.8379 250.41 54.3574C249.831 54.877 249.084 55.1367 248.168 55.1367C247.092 55.1367 246.245 54.7995 245.625 54.125C245.005 53.4505 244.695 52.5163 244.695 51.3223V51.2266C244.695 50.4792 244.832 49.8206 245.105 49.251C245.383 48.6768 245.782 48.237 246.302 47.9316C246.821 47.6217 247.437 47.4668 248.147 47.4668C249.109 47.4668 249.872 47.7334 250.438 48.2666C251.003 48.7998 251.285 49.5221 251.285 50.4336H249.125C249.125 50.0508 249.032 49.7568 248.845 49.5518C248.658 49.3467 248.407 49.2441 248.093 49.2441C247.496 49.2441 247.147 49.6247 247.047 50.3857C247.015 50.6273 246.999 50.96 246.999 51.3838C246.999 52.1266 247.088 52.6416 247.266 52.9287C247.443 53.2158 247.726 53.3594 248.113 53.3594ZM255.838 55.1367C254.703 55.1367 253.785 54.7995 253.083 54.125C252.381 53.446 252.03 52.5641 252.03 51.4795V51.2881C252.03 50.5316 252.169 49.8639 252.447 49.2852C252.73 48.7064 253.14 48.2598 253.678 47.9453C254.215 47.6263 254.854 47.4668 255.592 47.4668C256.631 47.4668 257.451 47.7904 258.053 48.4375C258.654 49.0801 258.955 49.9779 258.955 51.1309V52.0264H254.375C254.457 52.4411 254.637 52.7669 254.915 53.0039C255.193 53.2409 255.553 53.3594 255.995 53.3594C256.724 53.3594 257.294 53.1042 257.704 52.5938L258.757 53.8379C258.47 54.2344 258.062 54.5511 257.533 54.7881C257.009 55.0205 256.444 55.1367 255.838 55.1367ZM255.578 49.2441C254.904 49.2441 254.503 49.6908 254.375 50.584H256.699V50.4062C256.708 50.0371 256.615 49.7523 256.419 49.5518C256.223 49.3467 255.943 49.2441 255.578 49.2441Z" fill="white"/>
<path d="M135.32 89.5312L137.392 85.0469H139.634L136.366 91.3906V95H134.281V91.3906L131.014 85.0469H133.263L135.32 89.5312ZM139.654 91.2334C139.654 90.4997 139.796 89.8457 140.078 89.2715C140.361 88.6973 140.766 88.2529 141.295 87.9385C141.828 87.624 142.446 87.4668 143.147 87.4668C144.146 87.4668 144.959 87.7721 145.588 88.3828C146.221 88.9935 146.575 89.8229 146.647 90.8711L146.661 91.377C146.661 92.5117 146.344 93.4232 145.711 94.1113C145.077 94.7949 144.228 95.1367 143.161 95.1367C142.095 95.1367 141.243 94.7949 140.604 94.1113C139.971 93.4277 139.654 92.498 139.654 91.3223V91.2334ZM141.63 91.377C141.63 92.0788 141.762 92.6165 142.026 92.9902C142.291 93.3594 142.669 93.5439 143.161 93.5439C143.64 93.5439 144.013 93.3617 144.282 92.9971C144.551 92.6279 144.686 92.04 144.686 91.2334C144.686 90.5452 144.551 90.012 144.282 89.6338C144.013 89.2555 143.635 89.0664 143.147 89.0664C142.664 89.0664 142.291 89.2555 142.026 89.6338C141.762 90.0075 141.63 90.5885 141.63 91.377ZM152.308 94.248C151.82 94.8405 151.146 95.1367 150.284 95.1367C149.491 95.1367 148.885 94.9089 148.466 94.4531C148.051 93.9974 147.839 93.3298 147.83 92.4502V87.6035H149.806V92.3818C149.806 93.152 150.157 93.5371 150.858 93.5371C151.528 93.5371 151.989 93.3047 152.239 92.8398V87.6035H154.222V95H152.362L152.308 94.248ZM167.142 91.6846C167.064 92.7555 166.668 93.5986 165.952 94.2139C165.241 94.8291 164.302 95.1367 163.136 95.1367C161.86 95.1367 160.855 94.7083 160.121 93.8516C159.392 92.9902 159.027 91.8099 159.027 90.3105V89.7021C159.027 88.7451 159.196 87.902 159.533 87.1729C159.87 86.4437 160.351 85.8854 160.976 85.498C161.604 85.1061 162.334 84.9102 163.163 84.9102C164.312 84.9102 165.237 85.2178 165.938 85.833C166.64 86.4482 167.046 87.3118 167.155 88.4238H165.104C165.054 87.7812 164.874 87.3164 164.564 87.0293C164.259 86.7376 163.792 86.5918 163.163 86.5918C162.479 86.5918 161.967 86.8379 161.625 87.3301C161.288 87.8177 161.115 88.5765 161.105 89.6064V90.3584C161.105 91.4339 161.267 92.2201 161.591 92.7168C161.919 93.2135 162.434 93.4619 163.136 93.4619C163.769 93.4619 164.241 93.3184 164.551 93.0312C164.865 92.7396 165.045 92.2907 165.091 91.6846H167.142ZM172.645 95C172.553 94.8223 172.487 94.6012 172.446 94.3369C171.968 94.8701 171.346 95.1367 170.58 95.1367C169.855 95.1367 169.254 94.9271 168.775 94.5078C168.301 94.0885 168.064 93.5599 168.064 92.9219C168.064 92.138 168.354 91.5365 168.933 91.1172C169.516 90.6979 170.357 90.486 171.455 90.4814H172.364V90.0576C172.364 89.7158 172.275 89.4424 172.098 89.2373C171.924 89.0322 171.649 88.9297 171.271 88.9297C170.938 88.9297 170.676 89.0094 170.484 89.1689C170.298 89.3285 170.204 89.5472 170.204 89.8252H168.229C168.229 89.3968 168.361 89.0003 168.625 88.6357C168.889 88.2712 169.263 87.9863 169.746 87.7812C170.229 87.5716 170.771 87.4668 171.373 87.4668C172.285 87.4668 173.007 87.6969 173.54 88.1572C174.078 88.613 174.347 89.2555 174.347 90.085V93.291C174.351 93.9928 174.449 94.5238 174.641 94.8838V95H172.645ZM171.011 93.626C171.302 93.626 171.571 93.5622 171.817 93.4346C172.063 93.3024 172.246 93.127 172.364 92.9082V91.6367H171.626C170.637 91.6367 170.111 91.9785 170.047 92.6621L170.04 92.7783C170.04 93.0244 170.127 93.2272 170.3 93.3867C170.473 93.5462 170.71 93.626 171.011 93.626ZM177.683 87.6035L177.744 88.458C178.273 87.7972 178.981 87.4668 179.87 87.4668C180.654 87.4668 181.237 87.6969 181.62 88.1572C182.003 88.6175 182.199 89.3057 182.208 90.2217V95H180.232V90.2695C180.232 89.8503 180.141 89.5472 179.959 89.3604C179.777 89.1689 179.474 89.0732 179.05 89.0732C178.494 89.0732 178.077 89.3102 177.799 89.7842V95H175.823V87.6035H177.683ZM193.316 90.6865H189.379V93.3525H194V95H187.328V85.0469H193.986V86.708H189.379V89.0801H193.316V90.6865ZM194.629 91.2471C194.629 90.0941 194.886 89.1758 195.401 88.4922C195.921 87.8086 196.63 87.4668 197.527 87.4668C198.247 87.4668 198.842 87.7357 199.312 88.2734V84.5H201.294V95H199.51L199.414 94.2139C198.922 94.8291 198.288 95.1367 197.514 95.1367C196.643 95.1367 195.944 94.7949 195.415 94.1113C194.891 93.4232 194.629 92.4684 194.629 91.2471ZM196.604 91.3906C196.604 92.0833 196.725 92.6143 196.967 92.9834C197.208 93.3525 197.559 93.5371 198.02 93.5371C198.63 93.5371 199.061 93.2796 199.312 92.7646V89.8457C199.065 89.3307 198.639 89.0732 198.033 89.0732C197.081 89.0732 196.604 89.8457 196.604 91.3906ZM204.91 95H202.928V87.6035H204.91V95ZM202.812 85.6895C202.812 85.3932 202.91 85.1494 203.105 84.958C203.306 84.7666 203.577 84.6709 203.919 84.6709C204.256 84.6709 204.525 84.7666 204.726 84.958C204.926 85.1494 205.026 85.3932 205.026 85.6895C205.026 85.9902 204.924 86.2363 204.719 86.4277C204.518 86.6191 204.252 86.7148 203.919 86.7148C203.586 86.7148 203.317 86.6191 203.112 86.4277C202.912 86.2363 202.812 85.9902 202.812 85.6895ZM208.909 85.7852V87.6035H210.174V89.0527H208.909V92.7441C208.909 93.0176 208.962 93.2135 209.066 93.332C209.171 93.4505 209.372 93.5098 209.668 93.5098C209.887 93.5098 210.08 93.4938 210.249 93.4619V94.959C209.862 95.0775 209.463 95.1367 209.053 95.1367C207.667 95.1367 206.961 94.4372 206.934 93.0381V89.0527H205.854V87.6035H206.934V85.7852H208.909ZM220.879 90.6865H216.941V93.3525H221.562V95H214.891V85.0469H221.549V86.708H216.941V89.0801H220.879V90.6865ZM224.454 87.6035L224.516 88.458C225.044 87.7972 225.753 87.4668 226.642 87.4668C227.425 87.4668 228.009 87.6969 228.392 88.1572C228.774 88.6175 228.97 89.3057 228.979 90.2217V95H227.004V90.2695C227.004 89.8503 226.913 89.5472 226.73 89.3604C226.548 89.1689 226.245 89.0732 225.821 89.0732C225.265 89.0732 224.848 89.3102 224.57 89.7842V95H222.595V87.6035H224.454ZM230.196 91.2471C230.196 90.1123 230.465 89.1986 231.003 88.5059C231.545 87.8132 232.274 87.4668 233.19 87.4668C234.002 87.4668 234.633 87.7448 235.084 88.3008L235.166 87.6035H236.957V94.7539C236.957 95.401 236.809 95.9639 236.513 96.4424C236.221 96.9209 235.809 97.2855 235.275 97.5361C234.742 97.7868 234.118 97.9121 233.402 97.9121C232.86 97.9121 232.331 97.8027 231.816 97.584C231.301 97.3698 230.912 97.0918 230.647 96.75L231.522 95.5469C232.015 96.0983 232.612 96.374 233.313 96.374C233.838 96.374 234.245 96.2327 234.537 95.9502C234.829 95.6722 234.975 95.2757 234.975 94.7607V94.3643C234.519 94.8792 233.92 95.1367 233.177 95.1367C232.288 95.1367 231.568 94.7904 231.017 94.0977C230.47 93.4004 230.196 92.4775 230.196 91.3291V91.2471ZM232.172 91.3906C232.172 92.0605 232.306 92.5869 232.575 92.9697C232.844 93.348 233.213 93.5371 233.683 93.5371C234.284 93.5371 234.715 93.3115 234.975 92.8604V89.75C234.71 89.2988 234.284 89.0732 233.696 89.0732C233.222 89.0732 232.849 89.2669 232.575 89.6543C232.306 90.0417 232.172 90.6204 232.172 91.3906ZM240.566 95H238.584V84.5H240.566V95ZM244.285 95H242.303V87.6035H244.285V95ZM242.187 85.6895C242.187 85.3932 242.285 85.1494 242.48 84.958C242.681 84.7666 242.952 84.6709 243.294 84.6709C243.631 84.6709 243.9 84.7666 244.101 84.958C244.301 85.1494 244.401 85.3932 244.401 85.6895C244.401 85.9902 244.299 86.2363 244.094 86.4277C243.893 86.6191 243.627 86.7148 243.294 86.7148C242.961 86.7148 242.692 86.6191 242.487 86.4277C242.287 86.2363 242.187 85.9902 242.187 85.6895ZM249.925 92.9561C249.925 92.7145 249.804 92.5254 249.562 92.3887C249.326 92.2474 248.943 92.1221 248.414 92.0127C246.655 91.6436 245.775 90.8962 245.775 89.7705C245.775 89.1143 246.047 88.5674 246.589 88.1299C247.136 87.6878 247.849 87.4668 248.729 87.4668C249.667 87.4668 250.417 87.6878 250.978 88.1299C251.543 88.5719 251.825 89.1462 251.825 89.8525H249.85C249.85 89.57 249.758 89.3376 249.576 89.1553C249.394 88.9684 249.109 88.875 248.722 88.875C248.389 88.875 248.132 88.9502 247.949 89.1006C247.767 89.251 247.676 89.4424 247.676 89.6748C247.676 89.8936 247.778 90.0713 247.983 90.208C248.193 90.3402 248.544 90.4564 249.036 90.5566C249.528 90.6523 249.943 90.7617 250.28 90.8848C251.324 91.2676 251.846 91.9307 251.846 92.874C251.846 93.5485 251.556 94.0954 250.978 94.5146C250.399 94.9294 249.651 95.1367 248.735 95.1367C248.116 95.1367 247.564 95.0273 247.081 94.8086C246.603 94.5853 246.227 94.2822 245.953 93.8994C245.68 93.512 245.543 93.0951 245.543 92.6484H247.416C247.434 92.9993 247.564 93.2682 247.806 93.4551C248.047 93.6419 248.371 93.7354 248.776 93.7354C249.155 93.7354 249.439 93.6647 249.631 93.5234C249.827 93.3776 249.925 93.1885 249.925 92.9561ZM255.052 88.4102C255.576 87.7812 256.234 87.4668 257.027 87.4668C258.632 87.4668 259.445 88.3988 259.468 90.2627V95H257.492V90.3174C257.492 89.8936 257.401 89.5814 257.219 89.3809C257.036 89.1758 256.733 89.0732 256.31 89.0732C255.731 89.0732 255.312 89.2965 255.052 89.7432V95H253.076V84.5H255.052V88.4102ZM266.372 88.4102C266.896 87.7812 267.555 87.4668 268.348 87.4668C269.952 87.4668 270.765 88.3988 270.788 90.2627V95H268.812V90.3174C268.812 89.8936 268.721 89.5814 268.539 89.3809C268.357 89.1758 268.054 89.0732 267.63 89.0732C267.051 89.0732 266.632 89.2965 266.372 89.7432V95H264.396V84.5H266.372V88.4102ZM275.683 95.1367C274.598 95.1367 273.714 94.804 273.03 94.1387C272.351 93.4733 272.012 92.5869 272.012 91.4795V91.2881C272.012 90.5452 272.155 89.8822 272.442 89.2988C272.729 88.7109 273.135 88.2598 273.659 87.9453C274.188 87.6263 274.789 87.4668 275.464 87.4668C276.476 87.4668 277.271 87.7858 277.85 88.4238C278.433 89.0618 278.725 89.9665 278.725 91.1377V91.9443H274.015C274.078 92.4274 274.27 92.8148 274.589 93.1064C274.912 93.3981 275.32 93.5439 275.812 93.5439C276.574 93.5439 277.168 93.2682 277.597 92.7168L278.567 93.8037C278.271 94.223 277.87 94.5511 277.364 94.7881C276.858 95.0205 276.298 95.1367 275.683 95.1367ZM275.457 89.0664C275.065 89.0664 274.746 89.1986 274.5 89.4629C274.258 89.7272 274.104 90.1055 274.035 90.5977H276.783V90.4404C276.774 90.0029 276.656 89.6657 276.428 89.4287C276.2 89.1872 275.876 89.0664 275.457 89.0664ZM284.009 89.4561C283.74 89.4196 283.503 89.4014 283.298 89.4014C282.55 89.4014 282.061 89.6543 281.828 90.1602V95H279.853V87.6035H281.719L281.773 88.4854C282.17 87.8063 282.719 87.4668 283.421 87.4668C283.64 87.4668 283.845 87.4964 284.036 87.5557L284.009 89.4561ZM288.233 95.1367C287.149 95.1367 286.265 94.804 285.581 94.1387C284.902 93.4733 284.562 92.5869 284.562 91.4795V91.2881C284.562 90.5452 284.706 89.8822 284.993 89.2988C285.28 88.7109 285.686 88.2598 286.21 87.9453C286.739 87.6263 287.34 87.4668 288.015 87.4668C289.026 87.4668 289.822 87.7858 290.4 88.4238C290.984 89.0618 291.275 89.9665 291.275 91.1377V91.9443H286.565C286.629 92.4274 286.821 92.8148 287.14 93.1064C287.463 93.3981 287.871 93.5439 288.363 93.5439C289.124 93.5439 289.719 93.2682 290.147 92.7168L291.118 93.8037C290.822 94.223 290.421 94.5511 289.915 94.7881C289.409 95.0205 288.849 95.1367 288.233 95.1367ZM288.008 89.0664C287.616 89.0664 287.297 89.1986 287.051 89.4629C286.809 89.7272 286.654 90.1055 286.586 90.5977H289.334V90.4404C289.325 90.0029 289.206 89.6657 288.979 89.4287C288.751 89.1872 288.427 89.0664 288.008 89.0664Z" fill="black"/>
<rect x="131" y="100" width="160.645" height="3" fill="#A4A4A4"/>
<g filter="url(#filter0_f_427_15)">
<path d="M122.055 92.311C122.786 91.9409 122.786 90.8966 122.055 90.5266L114.286 86.5948C113.621 86.2581 112.834 86.7415 112.834 87.487L112.834 95.3506C112.834 96.0961 113.621 96.5795 114.286 96.2428L122.055 92.311Z" fill="black" fill-opacity="0.5"/>
<mask id="mask0_427_15" style="mask-type:alpha" maskUnits="userSpaceOnUse" x="78" y="21" width="66" height="73">
<path d="M88.5065 92.5H134C138.694 92.5 142.5 88.6944 142.5 84V31C142.5 26.3056 138.694 22.5 134 22.5H114.892H88.5065C83.8121 22.5 80.0065 26.3056 80.0065 31V84C80.0065 88.6944 83.812 92.5 88.5065 92.5Z" stroke="black" stroke-opacity="0.5" stroke-width="3"/>
</mask>
<g mask="url(#mask0_427_15)">
<path fill-rule="evenodd" clip-rule="evenodd" d="M82.8153 20H77.6448V101H82.8153V99H115.131V87H82.8153V20Z" fill="black" fill-opacity="0.5"/>
</g>
</g>
<path d="M123.219 91.3158C123.963 90.9492 123.963 89.8884 123.219 89.5218L115.202 85.5708C114.537 85.2433 113.76 85.7269 113.76 86.4678L113.76 94.3698C113.76 95.1107 114.537 95.5943 115.202 95.2668L123.219 91.3158Z" fill="#5F00AA"/>
<mask id="mask1_427_15" style="mask-type:alpha" maskUnits="userSpaceOnUse" x="76" y="19" width="191" height="73">
<path d="M86 90.5H256.494C261.188 90.5 264.994 86.6944 264.994 82V29C264.994 24.3056 261.188 20.5 256.494 20.5H181.83H86C81.3056 20.5 77.5 24.3056 77.5 29V82C77.5 86.6944 81.3056 90.5 86 90.5Z" stroke="#5F00AA" stroke-width="3"/>
</mask>
<g mask="url(#mask1_427_15)">
<path fill-rule="evenodd" clip-rule="evenodd" d="M99 18H73V99H99V97H115V85H99V18Z" fill="#5F00AA"/>
</g>
<g filter="url(#filter1_d_427_15)">
<path d="M296 92H346C349.314 92 352 89.3137 352 86V50C352 46.6863 349.314 44 346 44H321.639" stroke="#5F00AA" stroke-width="2.5"/>
</g>
<g filter="url(#filter2_d_427_15)">
<path d="M314.461 43.5572C313.805 43.944 313.805 44.8932 314.461 45.28L320.921 49.0883C321.587 49.4813 322.429 49.0007 322.429 48.2269L322.429 40.6103C322.429 39.8365 321.587 39.3559 320.921 39.7489L314.461 43.5572Z" fill="#5F00AA"/>
</g>
<rect y="42.0159" width="72" height="20" rx="9" fill="#858585"/>
<path d="M10.1582 52.0491L9.11523 53.1331V56.0159H7.99023V47.4846H9.11523V51.7034L12.9062 47.4846H14.2656L10.9082 51.2522L14.5293 56.0159H13.1816L10.1582 52.0491ZM21.8887 52.0256C21.8887 52.8616 21.748 53.592 21.4668 54.217C21.1855 54.8381 20.7871 55.3127 20.2715 55.6409C19.7559 55.969 19.1543 56.1331 18.4668 56.1331C17.7949 56.1331 17.1992 55.969 16.6797 55.6409C16.1602 55.3088 15.7559 54.8381 15.4668 54.2288C15.1816 53.6155 15.0352 52.9065 15.0273 52.1018V51.4866C15.0273 50.6663 15.1699 49.9417 15.4551 49.3127C15.7402 48.6838 16.1426 48.2034 16.6621 47.8713C17.1855 47.5354 17.7832 47.3674 18.4551 47.3674C19.1387 47.3674 19.7402 47.5334 20.2598 47.8655C20.7832 48.1936 21.1855 48.6721 21.4668 49.301C21.748 49.926 21.8887 50.6545 21.8887 51.4866V52.0256ZM20.7695 51.4749C20.7695 50.4631 20.5664 49.6877 20.1602 49.1487C19.7539 48.6057 19.1855 48.3342 18.4551 48.3342C17.7441 48.3342 17.1836 48.6057 16.7734 49.1487C16.3672 49.6877 16.1582 50.4377 16.1465 51.3987V52.0256C16.1465 53.0061 16.3516 53.7776 16.7617 54.3401C17.1758 54.8987 17.7441 55.178 18.4668 55.178C19.1934 55.178 19.7559 54.9143 20.1543 54.387C20.5527 53.8557 20.7578 53.0959 20.7695 52.1077V51.4749Z" fill="white"/>
<path d="M47.8125 52.0725H44.1152V55.0959H48.4102V56.0159H42.9902V47.4846H48.3516V48.4104H44.1152V51.1526H47.8125V52.0725ZM56.3672 56.0159H55.2363L50.9414 49.4417V56.0159H49.8105V47.4846H50.9414L55.248 54.0881V47.4846H56.3672V56.0159Z" fill="white"/>
<path d="M32 52.0159H38M38 52.0159L36.5 50.5159M38 52.0159L36.5 53.5159" stroke="white" stroke-linecap="round"/>
<rect x="359" y="58" width="72" height="20" rx="9" fill="#858585"/>
<path d="M406.158 68.0332L405.115 69.1172V72H403.99V63.4688H405.115V67.6875L408.906 63.4688H410.266L406.908 67.2363L410.529 72H409.182L406.158 68.0332ZM417.889 68.0098C417.889 68.8457 417.748 69.5762 417.467 70.2012C417.186 70.8223 416.787 71.2969 416.271 71.625C415.756 71.9531 415.154 72.1172 414.467 72.1172C413.795 72.1172 413.199 71.9531 412.68 71.625C412.16 71.293 411.756 70.8223 411.467 70.2129C411.182 69.5996 411.035 68.8906 411.027 68.0859V67.4707C411.027 66.6504 411.17 65.9258 411.455 65.2969C411.74 64.668 412.143 64.1875 412.662 63.8555C413.186 63.5195 413.783 63.3516 414.455 63.3516C415.139 63.3516 415.74 63.5176 416.26 63.8496C416.783 64.1777 417.186 64.6562 417.467 65.2852C417.748 65.9102 417.889 66.6387 417.889 67.4707V68.0098ZM416.77 67.459C416.77 66.4473 416.566 65.6719 416.16 65.1328C415.754 64.5898 415.186 64.3184 414.455 64.3184C413.744 64.3184 413.184 64.5898 412.773 65.1328C412.367 65.6719 412.158 66.4219 412.146 67.3828V68.0098C412.146 68.9902 412.352 69.7617 412.762 70.3242C413.176 70.8828 413.744 71.1621 414.467 71.1621C415.193 71.1621 415.756 70.8984 416.154 70.3711C416.553 69.8398 416.758 69.0801 416.77 68.0918V67.459Z" fill="white"/>
<path d="M393 68H399M399 68L397.5 66.5M399 68L397.5 69.5" stroke="white" stroke-linecap="round"/>
<path d="M371.812 68.0566H368.115V71.0801H372.41V72H366.99V63.4688H372.352V64.3945H368.115V67.1367H371.812V68.0566ZM380.367 72H379.236L374.941 65.4258V72H373.811V63.4688H374.941L379.248 70.0723V63.4688H380.367V72Z" fill="white"/>
<defs>
<filter id="filter0_f_427_15" x="74.5065" y="17" width="52.0967" height="83.3518" filterUnits="userSpaceOnUse" color-interpolation-filters="sRGB">
<feFlood flood-opacity="0" result="BackgroundImageFix"/>
<feBlend mode="normal" in="SourceGraphic" in2="BackgroundImageFix" result="shape"/>
<feGaussianBlur stdDeviation="2" result="effect1_foregroundBlur_427_15"/>
</filter>
<filter id="filter1_d_427_15" x="292" y="42.75" width="65.25" height="58.5" filterUnits="userSpaceOnUse" color-interpolation-filters="sRGB">
<feFlood flood-opacity="0" result="BackgroundImageFix"/>
<feColorMatrix in="SourceAlpha" type="matrix" values="0 0 0 0 0 0 0 0 0 0 0 0 0 0 0 0 0 0 127 0" result="hardAlpha"/>
<feOffset dy="4"/>
<feGaussianBlur stdDeviation="2"/>
<feComposite in2="hardAlpha" operator="out"/>
<feColorMatrix type="matrix" values="0 0 0 0 0 0 0 0 0 0 0 0 0 0 0 0 0 0 0.25 0"/>
<feBlend mode="normal" in2="BackgroundImageFix" result="effect1_dropShadow_427_15"/>
<feBlend mode="normal" in="SourceGraphic" in2="effect1_dropShadow_427_15" result="shape"/>
</filter>
<filter id="filter2_d_427_15" x="309.969" y="39.6089" width="16.4596" height="17.6194" filterUnits="userSpaceOnUse" color-interpolation-filters="sRGB">
<feFlood flood-opacity="0" result="BackgroundImageFix"/>
<feColorMatrix in="SourceAlpha" type="matrix" values="0 0 0 0 0 0 0 0 0 0 0 0 0 0 0 0 0 0 127 0" result="hardAlpha"/>
<feOffset dy="4"/>
<feGaussianBlur stdDeviation="2"/>
<feComposite in2="hardAlpha" operator="out"/>
<feColorMatrix type="matrix" values="0 0 0 0 0 0 0 0 0 0 0 0 0 0 0 0 0 0 0.5 0"/>
<feBlend mode="normal" in2="BackgroundImageFix" result="effect1_dropShadow_427_15"/>
<feBlend mode="normal" in="SourceGraphic" in2="effect1_dropShadow_427_15" result="shape"/>
</filter>
</defs>
</svg>
